<mxfile host="app.diagrams.net" agent="Mozilla/5.0 (Windows NT 10.0; Win64; x64) AppleWebKit/537.36 (KHTML, like Gecko) Chrome/138.0.0.0 Safari/537.36" version="28.0.9">
  <diagram name="Page-1" id="kwjJiHo2rYkCLku9feqy">
    <mxGraphModel dx="1042" dy="562" grid="1" gridSize="10" guides="1" tooltips="1" connect="1" arrows="1" fold="1" page="1" pageScale="1" pageWidth="850" pageHeight="1100" math="0" shadow="0">
      <root>
        <mxCell id="0" />
        <mxCell id="1" parent="0" />
        <mxCell id="rLbrWxfdltweqoPNasLp-32" value="" style="edgeStyle=orthogonalEdgeStyle;rounded=0;orthogonalLoop=1;jettySize=auto;html=1;" edge="1" parent="1" source="rLbrWxfdltweqoPNasLp-52" target="rLbrWxfdltweqoPNasLp-13">
          <mxGeometry relative="1" as="geometry" />
        </mxCell>
        <mxCell id="rLbrWxfdltweqoPNasLp-1" value="Start" style="shape=ellipse;fillColor=#d5e8d4;strokeColor=#82b366;" vertex="1" parent="1">
          <mxGeometry x="90" y="10" width="120" height="60" as="geometry" />
        </mxCell>
        <mxCell id="rLbrWxfdltweqoPNasLp-15" value="" style="edgeStyle=orthogonalEdgeStyle;rounded=0;orthogonalLoop=1;jettySize=auto;html=1;" edge="1" parent="1" source="rLbrWxfdltweqoPNasLp-13" target="rLbrWxfdltweqoPNasLp-14">
          <mxGeometry relative="1" as="geometry" />
        </mxCell>
        <mxCell id="rLbrWxfdltweqoPNasLp-33" style="edgeStyle=orthogonalEdgeStyle;rounded=0;orthogonalLoop=1;jettySize=auto;html=1;entryX=0;entryY=0.5;entryDx=0;entryDy=0;" edge="1" parent="1" source="rLbrWxfdltweqoPNasLp-13" target="rLbrWxfdltweqoPNasLp-34">
          <mxGeometry relative="1" as="geometry">
            <mxPoint x="20" y="990" as="targetPoint" />
            <Array as="points">
              <mxPoint x="21" y="260" />
              <mxPoint x="21" y="990" />
            </Array>
          </mxGeometry>
        </mxCell>
        <mxCell id="rLbrWxfdltweqoPNasLp-13" value="Is it feeding time?" style="rhombus;whiteSpace=wrap;html=1;fillColor=#b1ddf0;strokeColor=#10739e;" vertex="1" parent="1">
          <mxGeometry x="45" y="220" width="210" height="80" as="geometry" />
        </mxCell>
        <mxCell id="rLbrWxfdltweqoPNasLp-17" value="" style="edgeStyle=orthogonalEdgeStyle;rounded=0;orthogonalLoop=1;jettySize=auto;html=1;" edge="1" parent="1" source="rLbrWxfdltweqoPNasLp-14" target="rLbrWxfdltweqoPNasLp-16">
          <mxGeometry relative="1" as="geometry" />
        </mxCell>
        <mxCell id="rLbrWxfdltweqoPNasLp-38" value="" style="edgeStyle=orthogonalEdgeStyle;rounded=0;orthogonalLoop=1;jettySize=auto;html=1;" edge="1" parent="1" source="rLbrWxfdltweqoPNasLp-14" target="rLbrWxfdltweqoPNasLp-37">
          <mxGeometry relative="1" as="geometry" />
        </mxCell>
        <mxCell id="rLbrWxfdltweqoPNasLp-14" value="Is food available?" style="rhombus;whiteSpace=wrap;html=1;fillColor=#b1ddf0;strokeColor=#10739e;" vertex="1" parent="1">
          <mxGeometry x="400" y="220" width="180" height="80" as="geometry" />
        </mxCell>
        <mxCell id="rLbrWxfdltweqoPNasLp-21" value="" style="edgeStyle=orthogonalEdgeStyle;rounded=0;orthogonalLoop=1;jettySize=auto;html=1;" edge="1" parent="1" source="rLbrWxfdltweqoPNasLp-16" target="rLbrWxfdltweqoPNasLp-20">
          <mxGeometry relative="1" as="geometry" />
        </mxCell>
        <mxCell id="rLbrWxfdltweqoPNasLp-16" value="Activate Servo to Dispense Food portion" style="whiteSpace=wrap;html=1;fillColor=#d0cee2;strokeColor=#56517e;" vertex="1" parent="1">
          <mxGeometry x="420" y="390" width="140" height="60" as="geometry" />
        </mxCell>
        <mxCell id="rLbrWxfdltweqoPNasLp-26" value="" style="edgeStyle=orthogonalEdgeStyle;rounded=0;orthogonalLoop=1;jettySize=auto;html=1;" edge="1" parent="1" source="rLbrWxfdltweqoPNasLp-18">
          <mxGeometry relative="1" as="geometry">
            <mxPoint x="490" y="820" as="targetPoint" />
          </mxGeometry>
        </mxCell>
        <mxCell id="rLbrWxfdltweqoPNasLp-44" style="edgeStyle=orthogonalEdgeStyle;rounded=0;orthogonalLoop=1;jettySize=auto;html=1;exitX=1;exitY=0.5;exitDx=0;exitDy=0;entryX=0;entryY=0.5;entryDx=0;entryDy=0;" edge="1" parent="1" source="rLbrWxfdltweqoPNasLp-18" target="rLbrWxfdltweqoPNasLp-43">
          <mxGeometry relative="1" as="geometry" />
        </mxCell>
        <mxCell id="rLbrWxfdltweqoPNasLp-18" value="Has the weight of the bowl increased??" style="rhombus;whiteSpace=wrap;html=1;fillColor=#b1ddf0;strokeColor=#10739e;" vertex="1" parent="1">
          <mxGeometry x="372.5" y="650" width="235" height="80" as="geometry" />
        </mxCell>
        <mxCell id="rLbrWxfdltweqoPNasLp-22" value="" style="edgeStyle=orthogonalEdgeStyle;rounded=0;orthogonalLoop=1;jettySize=auto;html=1;" edge="1" parent="1" source="rLbrWxfdltweqoPNasLp-20" target="rLbrWxfdltweqoPNasLp-18">
          <mxGeometry relative="1" as="geometry" />
        </mxCell>
        <mxCell id="rLbrWxfdltweqoPNasLp-20" value="Wait 10 minutes" style="whiteSpace=wrap;html=1;fillColor=#d0cee2;strokeColor=#56517e;" vertex="1" parent="1">
          <mxGeometry x="430" y="530" width="120" height="60" as="geometry" />
        </mxCell>
        <mxCell id="rLbrWxfdltweqoPNasLp-28" value="" style="edgeStyle=orthogonalEdgeStyle;rounded=0;orthogonalLoop=1;jettySize=auto;html=1;" edge="1" parent="1" target="rLbrWxfdltweqoPNasLp-27">
          <mxGeometry relative="1" as="geometry">
            <mxPoint x="490" y="880" as="sourcePoint" />
          </mxGeometry>
        </mxCell>
        <mxCell id="rLbrWxfdltweqoPNasLp-35" value="" style="edgeStyle=orthogonalEdgeStyle;rounded=0;orthogonalLoop=1;jettySize=auto;html=1;" edge="1" parent="1" source="rLbrWxfdltweqoPNasLp-27" target="rLbrWxfdltweqoPNasLp-34">
          <mxGeometry relative="1" as="geometry" />
        </mxCell>
        <mxCell id="rLbrWxfdltweqoPNasLp-27" value="Deactivate Servo" style="rounded=1;whiteSpace=wrap;html=1;fillColor=#d0cee2;strokeColor=#56517e;" vertex="1" parent="1">
          <mxGeometry x="430" y="820" width="120" height="60" as="geometry" />
        </mxCell>
        <mxCell id="rLbrWxfdltweqoPNasLp-31" value="End" style="shape=ellipse;fillColor=#d5e8d4;strokeColor=#82b366;" vertex="1" parent="1">
          <mxGeometry x="430" y="1090" width="120" height="60" as="geometry" />
        </mxCell>
        <mxCell id="rLbrWxfdltweqoPNasLp-36" value="" style="edgeStyle=orthogonalEdgeStyle;rounded=0;orthogonalLoop=1;jettySize=auto;html=1;" edge="1" parent="1" source="rLbrWxfdltweqoPNasLp-34" target="rLbrWxfdltweqoPNasLp-31">
          <mxGeometry relative="1" as="geometry" />
        </mxCell>
        <mxCell id="rLbrWxfdltweqoPNasLp-34" value="Update Display&lt;br&gt;Food: Remaining Food(Total food portion-given portion)&amp;nbsp;&lt;br&gt;Next Feed: Next Feeding Time" style="shape=parallelogram;perimeter=parallelogramPerimeter;whiteSpace=wrap;html=1;fixedSize=1;fillColor=#008a00;strokeColor=#005700;fontColor=#ffffff;" vertex="1" parent="1">
          <mxGeometry x="350" y="960" width="280" height="60" as="geometry" />
        </mxCell>
        <mxCell id="rLbrWxfdltweqoPNasLp-41" style="edgeStyle=orthogonalEdgeStyle;rounded=0;orthogonalLoop=1;jettySize=auto;html=1;entryX=1;entryY=0.75;entryDx=0;entryDy=0;" edge="1" parent="1" source="rLbrWxfdltweqoPNasLp-37" target="rLbrWxfdltweqoPNasLp-34">
          <mxGeometry relative="1" as="geometry">
            <mxPoint x="780" y="990" as="targetPoint" />
            <Array as="points">
              <mxPoint x="780" y="740" />
              <mxPoint x="781" y="740" />
              <mxPoint x="781" y="1003" />
            </Array>
          </mxGeometry>
        </mxCell>
        <mxCell id="rLbrWxfdltweqoPNasLp-37" value="Alert Signal(Buzzer Sound)&amp;nbsp;" style="whiteSpace=wrap;html=1;fillColor=#d0cee2;strokeColor=#56517e;" vertex="1" parent="1">
          <mxGeometry x="720" y="430" width="120" height="60" as="geometry" />
        </mxCell>
        <mxCell id="rLbrWxfdltweqoPNasLp-45" style="edgeStyle=orthogonalEdgeStyle;rounded=0;orthogonalLoop=1;jettySize=auto;html=1;entryX=1;entryY=0.5;entryDx=0;entryDy=0;" edge="1" parent="1" source="rLbrWxfdltweqoPNasLp-43" target="rLbrWxfdltweqoPNasLp-27">
          <mxGeometry relative="1" as="geometry">
            <mxPoint x="700" y="850" as="targetPoint" />
            <Array as="points">
              <mxPoint x="700" y="850" />
            </Array>
          </mxGeometry>
        </mxCell>
        <mxCell id="rLbrWxfdltweqoPNasLp-43" value="Alert Signal(Buzzer Sound)&amp;nbsp;" style="whiteSpace=wrap;html=1;fillColor=#d0cee2;strokeColor=#56517e;" vertex="1" parent="1">
          <mxGeometry x="640" y="660" width="120" height="60" as="geometry" />
        </mxCell>
        <mxCell id="rLbrWxfdltweqoPNasLp-46" value="Yes" style="text;html=1;align=center;verticalAlign=middle;resizable=0;points=[];autosize=1;strokeColor=none;fillColor=none;" vertex="1" parent="1">
          <mxGeometry x="270" y="218" width="40" height="30" as="geometry" />
        </mxCell>
        <mxCell id="rLbrWxfdltweqoPNasLp-47" value="No" style="text;html=1;align=center;verticalAlign=middle;resizable=0;points=[];autosize=1;strokeColor=none;fillColor=none;" vertex="1" parent="1">
          <mxGeometry x="20" y="318" width="40" height="30" as="geometry" />
        </mxCell>
        <mxCell id="rLbrWxfdltweqoPNasLp-48" value="No" style="text;html=1;align=center;verticalAlign=middle;resizable=0;points=[];autosize=1;strokeColor=none;fillColor=none;" vertex="1" parent="1">
          <mxGeometry x="610" y="228" width="40" height="30" as="geometry" />
        </mxCell>
        <mxCell id="rLbrWxfdltweqoPNasLp-49" value="Yes" style="text;html=1;align=center;verticalAlign=middle;resizable=0;points=[];autosize=1;strokeColor=none;fillColor=none;" vertex="1" parent="1">
          <mxGeometry x="500" y="328" width="40" height="30" as="geometry" />
        </mxCell>
        <mxCell id="rLbrWxfdltweqoPNasLp-50" value="No" style="text;html=1;align=center;verticalAlign=middle;resizable=0;points=[];autosize=1;strokeColor=none;fillColor=none;" vertex="1" parent="1">
          <mxGeometry x="600" y="648" width="40" height="30" as="geometry" />
        </mxCell>
        <mxCell id="rLbrWxfdltweqoPNasLp-51" value="Yes" style="text;html=1;align=center;verticalAlign=middle;resizable=0;points=[];autosize=1;strokeColor=none;fillColor=none;" vertex="1" parent="1">
          <mxGeometry x="510" y="748" width="40" height="30" as="geometry" />
        </mxCell>
        <mxCell id="rLbrWxfdltweqoPNasLp-53" value="" style="edgeStyle=orthogonalEdgeStyle;rounded=0;orthogonalLoop=1;jettySize=auto;html=1;" edge="1" parent="1" source="rLbrWxfdltweqoPNasLp-1" target="rLbrWxfdltweqoPNasLp-52">
          <mxGeometry relative="1" as="geometry">
            <mxPoint x="150" y="70" as="sourcePoint" />
            <mxPoint x="150" y="220" as="targetPoint" />
          </mxGeometry>
        </mxCell>
        <mxCell id="rLbrWxfdltweqoPNasLp-52" value="Input Display&lt;br&gt;Food: Total Food&amp;nbsp;&lt;br&gt;Next Feed: Next Feeding Time" style="shape=parallelogram;perimeter=parallelogramPerimeter;whiteSpace=wrap;html=1;fixedSize=1;fillColor=#008a00;strokeColor=#005700;fontColor=#ffffff;" vertex="1" parent="1">
          <mxGeometry x="10" y="100" width="280" height="60" as="geometry" />
        </mxCell>
      </root>
    </mxGraphModel>
  </diagram>
</mxfile>
